<?xml version="1.0" encoding="UTF-8" standalone="no"?>
<!DOCTYPE svg PUBLIC "-//W3C//DTD SVG 1.1//EN" "http://www.w3.org/Graphics/SVG/1.1/DTD/svg11.dtd"><svg width="100%"
    height="100%" viewBox="0 0 324 379" version="1.1" xmlns="http://www.w3.org/2000/svg"
    xmlnsXlink="http://www.w3.org/1999/xlink" xml:space="preserve" xmlnsSerif="http://www.serif.com/"
    style="fill-rule:evenodd;clip-rule:evenodd;stroke-linecap:round;stroke-linejoin:round;">
    <g>
        <path id="path4210"
            d="M168.618,6.248c-2.383,-0.043 -4.757,0.471 -6.966,1.668c-41.152,17.65 -81.617,37.065 -121.658,57.11c-7.212,2.293 -7.372,10.59 -9.049,16.722c-9.93,48.216 -17.198,96.874 -24.095,145.594c-1.991,12.424 1.431,24.772 3.131,36.984c5.504,36.178 11.886,72.202 17.855,108.306l105.232,-0c-1.073,-9.347 -1.852,-18.726 -2.163,-28.148c-1.122,-25.082 -3.114,-51.504 7.188,-75.097c4.601,-10.395 10.554,-21.334 21.228,-26.451c23.346,-11.782 43.006,-29.491 61.16,-48.046c16.426,-16.069 30.132,-20.406 39.949,-33.488c8.38,-19.633 -8.279,-33.98 -29.304,-27.146c-24.49,8.899 -47.886,23.323 -74.534,24.389c-23.981,0.372 -42.261,-22.858 -42.656,-45.643c34.203,-15.329 73.681,-24.498 110.202,-11.731c21.886,7.358 48.09,13.986 61.912,15.132c10.045,0.832 20.908,-10.814 19.621,-21.123c12.056,-3.168 19.924,-22.532 -3.647,-34.301c-27.884,-13.924 -78.109,-34.192 -126.397,-53.063c-2.238,-1.025 -4.627,-1.625 -7.009,-1.668Z"
            style="fill:none;fill-rule:nonzero;stroke:#1b1b1b;stroke-width:12.49px;" />
        <path id="path4222"
            d="M76.338,63.893l102.459,-25.127c2.045,-0.501 6.309,-0.009 8.247,0.708c36.366,13.463 85.873,31.536 111.003,45.151c13.296,7.204 7.48,21.396 -0.349,27.664c-6.692,5.358 -15.603,3.991 -15.224,3.737"
            style="fill:none;stroke:#1b1b1b;stroke-width:12.49px;" />
    </g>
</svg>