<?xml version="1.0" encoding="UTF-8" standalone="no"?>
<!DOCTYPE svg PUBLIC "-//W3C//DTD SVG 1.1//EN" "http://www.w3.org/Graphics/SVG/1.1/DTD/svg11.dtd">
<svg width="100%" height="100%" viewBox="0 0 635 635" version="1.1" xmlns="http://www.w3.org/2000/svg" xmlns:xlink="http://www.w3.org/1999/xlink" xml:space="preserve" xmlns:serif="http://www.serif.com/" style="fill-rule:evenodd;clip-rule:evenodd;stroke-linecap:round;stroke-linejoin:round;stroke-miterlimit:1.5;">
    <g transform="matrix(1,0,0,1,-335.851,-1282.38)">
        <g transform="matrix(1,0,0,1,-127.414,512.696)">
            <circle cx="780.364" cy="1086.79" r="309.808" style="fill:white;stroke:rgb(16,16,16);stroke-width:14.58px;"/>
        </g>
        <g transform="matrix(0.880952,0,0,0.880952,-35.3331,642.534)">
            <circle cx="780.364" cy="1086.79" r="309.808" style="fill:rgb(124,160,220);stroke:rgb(16,16,16);stroke-width:16.55px;"/>
        </g>
        <g transform="matrix(0.538197,0,0,0.538864,115.649,134.462)">
            <path id="path4207" d="M1044.67,2378.82C1040.24,2378.74 1035.83,2379.69 1031.72,2381.91C955.264,2414.66 880.076,2450.7 805.678,2487.89C792.279,2492.15 791.982,2507.55 788.866,2518.93C770.415,2608.4 756.911,2698.7 744.096,2789.11C740.396,2812.17 746.754,2835.08 749.913,2857.75C760.139,2924.88 771.997,2991.74 783.089,3058.73L978.616,3058.73C976.622,3041.39 975.175,3023.98 974.596,3006.5C972.512,2959.95 968.81,2910.92 987.952,2867.14C996.502,2847.85 1007.56,2827.55 1027.39,2818.05C1070.77,2796.19 1107.3,2763.32 1141.03,2728.89C1171.56,2699.07 1197.02,2691.02 1215.26,2666.74C1230.83,2630.31 1199.88,2603.68 1160.81,2616.37C1115.31,2632.88 1071.84,2659.65 1022.33,2661.63C977.767,2662.32 943.801,2619.21 943.067,2576.93C1006.62,2548.48 1079.97,2531.46 1147.83,2555.16C1188.5,2568.81 1237.18,2581.11 1262.86,2583.24C1281.53,2584.78 1301.71,2563.17 1299.32,2544.04C1321.72,2538.16 1336.34,2502.22 1292.55,2480.38C1240.73,2454.54 1147.41,2416.93 1057.69,2381.91C1053.53,2380.01 1049.1,2378.9 1044.67,2378.82Z" style="fill:rgb(165,95,46);fill-rule:nonzero;stroke:rgb(225,96,73);stroke-width:27.08px;stroke-linecap:butt;stroke-miterlimit:2;"/>
        </g>
        <g transform="matrix(0.538197,0,0,0.538864,115.649,134.462)">
            <path id="path4210" d="M1044.67,2378.82C1040.24,2378.74 1035.83,2379.69 1031.72,2381.91C955.264,2414.66 880.076,2450.7 805.678,2487.89C792.279,2492.15 791.982,2507.55 788.866,2518.93C770.415,2608.4 756.911,2698.7 744.096,2789.11C740.396,2812.17 746.754,2835.08 749.913,2857.75C760.139,2924.88 771.997,2991.74 783.089,3058.73L978.616,3058.73C976.622,3041.39 975.175,3023.98 974.596,3006.5C972.512,2959.95 968.81,2910.92 987.952,2867.14C996.502,2847.85 1007.56,2827.55 1027.39,2818.05C1070.77,2796.19 1107.3,2763.32 1141.03,2728.89C1171.56,2699.07 1197.02,2691.02 1215.26,2666.74C1230.83,2630.31 1199.88,2603.68 1160.81,2616.37C1115.31,2632.88 1071.84,2659.65 1022.33,2661.63C977.767,2662.32 943.801,2619.21 943.067,2576.93C1006.62,2548.48 1079.97,2531.46 1147.83,2555.16C1188.5,2568.81 1237.18,2581.11 1262.86,2583.24C1281.53,2584.78 1301.71,2563.17 1299.32,2544.04C1321.72,2538.16 1336.34,2502.22 1292.55,2480.38C1240.73,2454.54 1147.41,2416.93 1057.69,2381.91C1053.53,2380.01 1049.1,2378.9 1044.67,2378.82Z" style="fill:none;fill-rule:nonzero;stroke:rgb(27,27,27);stroke-width:23.2px;stroke-miterlimit:4;"/>
        </g>
        <g transform="matrix(0.538197,0,0,0.538864,115.649,134.462)">
            <path id="path4222" d="M873.208,2485.79L1063.58,2439.16C1067.38,2438.23 1075.31,2439.14 1078.91,2440.47C1146.48,2465.46 1238.46,2499 1285.16,2524.26C1309.86,2537.63 1299.05,2563.97 1284.51,2575.6C1272.07,2585.55 1255.52,2583.01 1256.22,2582.54" style="fill:none;stroke:rgb(27,27,27);stroke-width:23.2px;stroke-miterlimit:4;"/>
        </g>
    </g>
</svg>
