<?xml version="1.0" encoding="UTF-8" standalone="no"?>
<!DOCTYPE svg PUBLIC "-//W3C//DTD SVG 1.1//EN" "http://www.w3.org/Graphics/SVG/1.1/DTD/svg11.dtd"><svg width="100%"
    height="100%" viewBox="0 0 265 428" version="1.1" xmlns="http://www.w3.org/2000/svg"
    xmlnsXlink="http://www.w3.org/1999/xlink" xml:space="preserve" xmlnsSerif="http://www.serif.com/"
    style="fill-rule:evenodd;clip-rule:evenodd;stroke-linecap:round;stroke-linejoin:round;">
    <g>
        <path id="path8569"
            d="M67.189,339.154c0,0 -22.114,-47.722 -29.098,-60.528c-6.985,-12.806 -24.654,-56.949 -29.103,-67.515c-9.313,-22.116 22.118,-32.592 36.087,-18.623c13.967,13.967 34.92,53.545 34.92,53.545c-0,0 24.02,9.171 31.427,11.641c13.97,4.655 23.282,24.444 23.282,24.444"
            style="fill-opacity:0;fill-rule:nonzero;stroke:current;stroke-width:14.58px;" />
        <path id="path8563"
            d="M74.122,232.491c2.592,-19.079 3.1,-29.371 3.1,-29.371c0,-0 5.758,-110.441 7.429,-142.169c2.329,-44.232 41.998,-44.12 41.998,-5.724c0,53.545 0.471,67.228 -0.348,77.895c-1.165,15.132 1.872,52.382 1.872,52.382c0,-0 8.603,-139.36 8.603,-158.308c0,-18.624 39.576,-34.922 41.905,3.491c3.544,58.49 -3.946,157.144 -3.946,157.144c-0,-0 8.222,-118.429 13.257,-132.699c6.985,-19.789 34.33,-17.531 33.758,8.148c-1.162,52.293 -6.273,135.028 -6.273,135.028c-0,0 5.097,-50.796 8.451,-82.647c2.327,-22.116 31.427,-37.249 32.592,8.15c0.644,25.125 1.541,57.296 -2.328,88.465c-4.87,39.217 5.109,70.866 0.409,91.958c-9.647,43.265 -41.558,78.781 -41.558,78.781l-1.162,37.25l-108.256,-0l3.492,-40.741c0,-0 -29.16,-13.813 -41.992,-45.571"
            style="fill-opacity:0;fill-rule:nonzero;stroke:current;stroke-width:14.58px;" />
    </g>
</svg>