<?xml version="1.0" encoding="UTF-8" standalone="no"?>
<!DOCTYPE svg PUBLIC "-//W3C//DTD SVG 1.1//EN" "http://www.w3.org/Graphics/SVG/1.1/DTD/svg11.dtd">
<svg width="100%" height="100%" viewBox="0 0 635 635" version="1.1" xmlns="http://www.w3.org/2000/svg" xmlnsXlink="http://www.w3.org/1999/xlink" xmlSpace="preserve" xmlnsSerif="http://www.serif.com/" style="fill-rule:evenodd;clip-rule:evenodd;stroke-linecap:round;stroke-linejoin:round;stroke-miterlimit:1.5;">
    <g transform="matrix(1,0,0,1,-1485.85,-332.382)">
        <g transform="matrix(1,0,0,1,1022.59,-437.304)">
            <circle cx="780.364" cy="1086.79" r="309.808" style="fill:white;stroke:rgb(16,16,16);stroke-width:14.58px;"/>
        </g>
        <g transform="matrix(0.880952,0,0,0.880952,1114.67,-307.466)">
            <circle cx="780.364" cy="1086.79" r="309.808" style="fill:rgb(124,160,220);stroke:rgb(16,16,16);stroke-width:16.55px;"/>
        </g>
        <g transform="matrix(0.595945,0,0,0.595945,764.936,436.713)">
            <path id="path8561" d="M1841.5,702.65L1659.84,702.65L1665.7,634.286C1665.7,634.286 1580.86,583.89 1590.89,515.762C1604.1,426.091 1615.54,338.279 1615.54,338.279C1615.54,338.279 1625.2,152.959 1628.01,99.719C1631.91,25.497 1698.48,25.685 1698.48,90.114C1698.48,179.963 1699.27,202.923 1697.89,220.823C1695.94,246.214 1701.04,308.719 1701.04,308.719C1701.04,308.719 1715.47,74.873 1715.47,43.077C1715.47,11.826 1781.88,-15.521 1785.79,48.936C1791.74,147.083 1779.17,312.624 1779.17,312.624C1779.17,312.624 1792.96,113.899 1801.41,89.955C1813.13,56.749 1859.02,60.537 1858.06,103.627C1856.11,191.375 1847.53,330.205 1847.53,330.205C1847.53,330.205 1856.09,244.968 1861.71,191.523C1865.62,154.412 1914.45,129.019 1916.4,205.198C1917.48,247.359 1918.99,301.342 1912.5,353.643C1904.32,419.45 1921.07,472.556 1913.18,507.95C1896.99,580.548 1843.45,640.144 1843.45,640.144L1841.5,702.65Z" style="fill:rgb(165,95,46);fill-rule:nonzero;stroke:rgb(27,27,27);stroke-width:24.47px;stroke-linecap:butt;stroke-miterlimit:2;"/>
        </g>
        <g transform="matrix(0.595945,0,0,0.595945,764.936,436.713)">
            <path id="path8563" d="M1841.5,702.65L1659.84,702.65L1665.7,634.286C1665.7,634.286 1580.86,583.89 1590.89,515.762C1604.1,426.091 1615.54,338.279 1615.54,338.279C1615.54,338.279 1625.2,152.959 1628.01,99.719C1631.91,25.497 1698.48,25.685 1698.48,90.114C1698.48,179.963 1699.27,202.923 1697.89,220.823C1695.94,246.214 1701.04,308.719 1701.04,308.719C1701.04,308.719 1715.47,74.873 1715.47,43.077C1715.47,11.826 1781.88,-15.521 1785.79,48.936C1791.74,147.083 1779.17,312.624 1779.17,312.624C1779.17,312.624 1792.96,113.899 1801.41,89.955C1813.13,56.749 1859.02,60.537 1858.06,103.627C1856.11,191.375 1847.53,330.205 1847.53,330.205C1847.53,330.205 1856.09,244.968 1861.71,191.523C1865.62,154.412 1914.45,129.019 1916.4,205.198C1917.48,247.359 1918.99,301.342 1912.5,353.643C1904.32,419.45 1921.07,472.556 1913.18,507.95C1896.99,580.548 1843.45,640.144 1843.45,640.144L1841.5,702.65Z" style="fill-opacity:0;fill-rule:nonzero;stroke:rgb(27,27,27);stroke-width:24.47px;stroke-miterlimit:4;"/>
        </g>
        <g transform="matrix(0.595945,0,0,0.595945,764.936,436.713)">
            <path id="path8567" d="M1598.7,566.546C1598.7,566.546 1561.6,486.467 1549.88,464.979C1538.15,443.491 1508.51,369.418 1501.04,351.689C1485.41,314.578 1538.15,296.999 1561.6,320.438C1585.03,343.876 1620.19,410.288 1620.19,410.288C1620.19,410.288 1660.5,425.677 1672.93,429.821C1696.37,437.633 1711.99,470.838 1711.99,470.838" style="fill:rgb(165,95,46);fill-rule:nonzero;stroke:rgb(225,96,73);stroke-width:24.47px;stroke-linecap:butt;stroke-miterlimit:2;"/>
        </g>
        <g transform="matrix(0.595945,0,0,0.595945,764.936,436.713)">
            <path id="path8569" d="M1598.7,566.546C1598.7,566.546 1561.6,486.467 1549.88,464.979C1538.15,443.491 1508.51,369.418 1501.04,351.689C1485.41,314.578 1538.15,296.999 1561.6,320.438C1585.03,343.876 1620.19,410.288 1620.19,410.288C1620.19,410.288 1660.5,425.677 1672.93,429.821C1696.37,437.633 1711.99,470.838 1711.99,470.838" style="fill-opacity:0;fill-rule:nonzero;stroke:rgb(27,27,27);stroke-width:24.47px;stroke-miterlimit:4;"/>
        </g>
    </g>
</svg>
