<?xml version="1.0" encoding="UTF-8" standalone="no"?>
<!DOCTYPE svg PUBLIC "-//W3C//DTD SVG 1.1//EN" "http://www.w3.org/Graphics/SVG/1.1/DTD/svg11.dtd">
<svg width="100%" height="100%" viewBox="0 0 635 635" version="1.1" xmlns="http://www.w3.org/2000/svg" xmlns:xlink="http://www.w3.org/1999/xlink" xml:space="preserve" xmlns:serif="http://www.serif.com/" style="fill-rule:evenodd;clip-rule:evenodd;stroke-linecap:round;stroke-linejoin:round;stroke-miterlimit:1.5;">
    <g transform="matrix(1,0,0,1,-335.851,-332.382)">
        <g transform="matrix(1,0,0,1,-127.414,-437.304)">
            <circle cx="780.364" cy="1086.79" r="309.808" style="fill:white;stroke:rgb(16,16,16);stroke-width:14.58px;"/>
        </g>
        <g transform="matrix(0.880952,0,0,0.880952,-35.3331,-307.466)">
            <circle cx="780.364" cy="1086.79" r="309.808" style="fill:rgb(124,160,220);stroke:rgb(16,16,16);stroke-width:16.55px;"/>
        </g>
        <g transform="matrix(-3.03396e-16,0.792453,-0.792453,-3.03396e-16,1042.2,-265.933)">
            <path id="path8547" d="M1246.9,702.65L1065.25,702.65L1071.11,634.286C1071.11,634.286 970.087,553.666 979.391,485.437C983.627,454.368 1005.45,439.41 1008.96,434.156C1014.6,425.683 1010.47,382.701 1017.52,338.877C1026.25,284.644 1058.83,274.011 1089.54,282.387C1120.61,290.862 1116.03,316.629 1116.03,316.629C1116.03,316.629 1135.57,287.329 1166.82,293.191C1193.76,298.241 1196.11,328.349 1196.11,328.349C1196.11,328.349 1217.03,304.462 1241.04,312.722C1277.8,325.371 1268.39,365.459 1268.39,365.459C1268.39,365.459 1317.17,325.02 1334.75,375.803C1352.34,426.588 1326.93,459.126 1322.41,498.417C1310.2,604.61 1248.85,640.144 1248.85,640.144L1246.9,702.65Z" style="fill:rgb(165,95,46);fill-rule:nonzero;"/>
        </g>
        <g transform="matrix(-3.03396e-16,0.792453,-0.792453,-3.03396e-16,1042.2,-265.933)">
            <path id="path8549" d="M1246.9,702.65L1065.25,702.65L1071.11,634.286C1071.11,634.286 970.087,553.666 979.391,485.437C983.627,454.368 1005.45,439.41 1008.96,434.156C1014.6,425.683 1010.47,382.701 1017.52,338.877C1026.25,284.644 1058.83,274.011 1089.54,282.387C1120.61,290.862 1116.03,316.629 1116.03,316.629C1116.03,316.629 1135.57,287.329 1166.82,293.191C1193.76,298.241 1196.11,328.349 1196.11,328.349C1196.11,328.349 1217.03,304.462 1241.04,312.722C1277.8,325.371 1268.39,365.459 1268.39,365.459C1268.39,365.459 1317.17,325.02 1334.75,375.803C1352.34,426.588 1326.93,459.126 1322.41,498.417C1310.2,604.61 1248.85,640.144 1248.85,640.144L1246.9,702.65Z" style="fill-opacity:0;fill-rule:nonzero;stroke:rgb(27,27,27);stroke-width:18.47px;stroke-miterlimit:4;"/>
        </g>
        <g transform="matrix(-3.03396e-16,0.792453,-0.792453,-3.03396e-16,1042.2,-265.933)">
            <path id="path8551" d="M1114.26,323.785C1114.26,323.785 1068.94,447.045 1112.11,454.995C1160.73,463.946 1177.68,439.249 1179.15,420.068C1181.1,394.784 1197.98,325.223 1197.98,325.223C1197.98,325.223 1152.47,469.343 1200.15,475.845C1249.76,482.611 1247.48,440.573 1254.33,421.666C1261.18,402.758 1271.18,352.76 1271.18,352.76C1271.18,352.76 1249.83,434.693 1245.05,453.326C1234.82,493.183 1309.56,536.667 1322.24,430.335L1330.91,427.083" style="fill:rgb(225,96,73);fill-opacity:0;fill-rule:nonzero;stroke:rgb(27,27,27);stroke-width:18.47px;stroke-miterlimit:4;"/>
        </g>
        <g transform="matrix(-3.03396e-16,0.792453,-0.792453,-3.03396e-16,1042.2,-265.933)">
            <path id="path8555" d="M1079.57,529.443C1079.57,529.443 1094.7,498.935 1117.8,496.31C1230.88,483.445 1202.83,389.476 1123.91,401.486C1006.66,419.329 986.452,471.315 986.452,471.315" style="fill:rgb(165,95,46);fill-rule:nonzero;"/>
        </g>
        <g transform="matrix(-3.03396e-16,0.792453,-0.792453,-3.03396e-16,1042.2,-265.933)">
            <path id="path8557" d="M1079.57,529.443C1079.57,529.443 1094.7,498.935 1117.8,496.31C1230.88,483.445 1202.83,389.476 1123.91,401.486C1006.66,419.329 986.452,471.315 986.452,471.315" style="fill-opacity:0;fill-rule:nonzero;stroke:rgb(27,27,27);stroke-width:18.47px;stroke-miterlimit:4;"/>
        </g>
    </g>
</svg>
