<?xml version="1.0" encoding="UTF-8" standalone="no"?>
<!DOCTYPE svg PUBLIC "-//W3C//DTD SVG 1.1//EN" "http://www.w3.org/Graphics/SVG/1.1/DTD/svg11.dtd"><svg width="100%"
    height="100%" viewBox="0 0 350 302" version="1.1" xmlns="http://www.w3.org/2000/svg"
    xmlnsXlink="http://www.w3.org/1999/xlink" xml:space="preserve" xmlnsSerif="http://www.serif.com/"
    style="fill-rule:evenodd;clip-rule:evenodd;stroke-linecap:round;stroke-linejoin:round;">
    <g>
        <g>
            <path id="path8549"
                d="M7.318,219.786l-0,-143.953l54.175,4.645c-0,0 63.888,-80.054 117.956,-72.681c24.621,3.357 36.474,20.652 40.638,23.429c6.714,4.475 40.775,1.199 75.504,6.787c42.977,6.916 51.403,32.732 44.765,57.075c-6.716,24.62 -27.135,20.991 -27.135,20.991c0,0 23.219,15.479 18.574,40.243c-4.002,21.354 -27.861,23.217 -27.861,23.217c-0,0 18.929,16.575 12.383,35.605c-10.023,29.132 -41.791,21.668 -41.791,21.668c-0,0 32.046,38.663 -8.197,52.592c-40.245,13.934 -66.03,-6.198 -97.166,-9.777c-84.153,-9.677 -112.312,-58.293 -112.312,-58.293l-49.533,-1.548Z"
                style="fill-opacity:0;fill-rule:nonzero;stroke:current;stroke-width:14.64px;" />
            <path id="path8551"
                d="M194.73,171.086c-4.223,2.687 -6.974,6.476 -7.68,11.651c-5.362,39.312 27.951,37.51 42.934,42.936c14.984,5.427 54.605,13.351 54.605,13.351c0,0 -64.928,-16.916 -79.694,-20.703c-31.585,-8.105 -71.625,62.247 12.638,72.297l18.86,3.067m70.018,-112.665c-0,-0 -36.23,-11.441 -68.8,-14.685m69.939,-51.664c0,-0 -36.533,-13.431 -66.355,-16.041"
                style="fill:#e16049;fill-opacity:0;fill-rule:nonzero;stroke:current;stroke-width:14.64px;" />
            <path id="path8557"
                d="M144.576,87.181c0,-0 24.176,11.997 26.256,30.299c10.195,89.608 84.661,67.386 75.144,4.843c-14.14,-92.914 -55.336,-108.93 -55.336,-108.93"
                style="fill-opacity:0;fill-rule:nonzero;stroke:current;stroke-width:14.64px;" />
        </g>
    </g>
</svg>