<?xml version="1.0" encoding="UTF-8" standalone="no"?>
<!DOCTYPE svg PUBLIC "-//W3C//DTD SVG 1.1//EN" "http://www.w3.org/Graphics/SVG/1.1/DTD/svg11.dtd">
<svg width="100%" height="100%" viewBox="0 0 635 635" version="1.1" xmlns="http://www.w3.org/2000/svg" xmlns:xlink="http://www.w3.org/1999/xlink" xml:space="preserve" xmlns:serif="http://www.serif.com/" style="fill-rule:evenodd;clip-rule:evenodd;stroke-linecap:round;stroke-linejoin:round;stroke-miterlimit:1.5;">
    <g transform="matrix(1,0,0,1,-1515.85,-1282.38)">
        <g transform="matrix(1,0,0,1,1052.59,512.696)">
            <circle cx="780.364" cy="1086.79" r="309.808" style="fill:white;stroke:rgb(16,16,16);stroke-width:14.58px;"/>
        </g>
        <g transform="matrix(0.880952,0,0,0.880952,1144.67,642.534)">
            <circle cx="780.364" cy="1086.79" r="309.808" style="fill:rgb(124,160,220);stroke:rgb(16,16,16);stroke-width:16.55px;"/>
        </g>
        <g transform="matrix(-2.44819e-16,0.639453,-0.639455,-2.4482e-16,2076.07,1200.46)">
            <path id="path8533" d="M734.198,702.65L552.546,702.65L558.404,634.286C558.404,634.286 485.462,544.045 495.496,475.919C508.703,386.251 508.242,338.284 508.242,338.284C508.242,338.284 497.544,157.324 496.548,104.019C495.335,39.045 567.93,29.407 575.204,93.424C584.844,178.271 598.959,339.222 598.959,339.222C611.58,307.313 655.432,133.751 665.268,93.424C682.261,23.75 752.844,44.429 746.34,95.319C736.46,172.605 683.411,318.159 683.411,318.159C683.411,318.159 704.328,294.273 728.339,302.533C765.103,315.18 755.684,355.269 755.684,355.269C755.684,355.269 794.396,333.219 811.975,384.003C829.555,434.786 819.059,459.993 809.712,498.422C792.132,570.691 736.152,640.146 736.152,640.146L734.198,702.65Z" style="fill:rgb(165,95,46);fill-rule:nonzero;"/>
        </g>
        <g transform="matrix(-2.44819e-16,0.639453,-0.639455,-2.4482e-16,2076.07,1200.46)">
            <path id="path8535" d="M734.198,702.65L552.546,702.65L558.404,634.286C558.404,634.286 485.462,544.045 495.496,475.919C508.703,386.251 508.242,338.284 508.242,338.284C508.242,338.284 497.544,157.324 496.548,104.019C495.335,39.045 567.93,29.407 575.204,93.424C584.844,178.271 598.959,339.222 598.959,339.222C611.58,307.313 655.432,133.751 665.268,93.424C682.261,23.75 752.844,44.429 746.34,95.319C736.46,172.605 683.411,318.159 683.411,318.159C683.411,318.159 704.328,294.273 728.339,302.533C765.103,315.18 755.684,355.269 755.684,355.269C755.684,355.269 794.396,333.219 811.975,384.003C829.555,434.786 819.059,459.993 809.712,498.422C792.132,570.691 736.152,640.146 736.152,640.146L734.198,702.65Z" style="fill-opacity:0;fill-rule:nonzero;stroke:rgb(27,27,27);stroke-width:21.59px;stroke-miterlimit:4;"/>
        </g>
        <g transform="matrix(-2.44819e-16,0.639453,-0.639455,-2.4482e-16,2076.07,1200.46)">
            <path id="path8537" d="M683.411,318.159C683.411,318.159 618.954,444.515 665.834,462.092C712.712,479.67 712.712,444.515 722.477,426.933C732.245,409.355 755.684,355.269 755.684,355.269C755.684,355.269 713.892,441.302 712.283,460.47C709.9,488.87 744.365,499.061 758.036,487.342C771.71,475.624 787.335,436.56 787.335,436.56L800.735,426.959" style="fill-opacity:0;fill-rule:nonzero;stroke:rgb(27,27,27);stroke-width:21.59px;stroke-miterlimit:4;"/>
        </g>
        <g transform="matrix(-2.44819e-16,0.639453,-0.639455,-2.4482e-16,2076.07,1200.46)">
            <g id="g8539">
                <path id="path8541" d="M566.864,529.447C566.864,529.447 582.171,500.132 605.097,496.31C681.564,483.565 689.118,395.094 610.193,407.103C492.947,424.945 498.045,481.018 498.045,481.018" style="fill:rgb(165,95,46);fill-rule:nonzero;stroke:rgb(27,27,27);stroke-width:22.81px;stroke-linecap:butt;stroke-miterlimit:2;"/>
                <path id="path8543" d="M566.864,529.447C566.864,529.447 582.171,500.132 605.097,496.31C681.564,483.565 689.118,395.094 610.193,407.103C492.947,424.945 498.045,481.018 498.045,481.018" style="fill-opacity:0;fill-rule:nonzero;stroke:rgb(27,27,27);stroke-width:21.59px;stroke-miterlimit:4;"/>
            </g>
        </g>
    </g>
</svg>
