<?xml version="1.0" encoding="UTF-8" standalone="no"?>
<!DOCTYPE svg PUBLIC "-//W3C//DTD SVG 1.1//EN" "http://www.w3.org/Graphics/SVG/1.1/DTD/svg11.dtd"><svg width="100%"
    height="100%" viewBox="0 0 104 55" version="1.1" xmlns="http://www.w3.org/2000/svg"
    xmlnsXlink="http://www.w3.org/1999/xlink" xml:space="preserve" xmlnsSerif="http://www.serif.com/"
    style="fill-rule:evenodd;clip-rule:evenodd;stroke-linecap:round;stroke-linejoin:round;stroke-miterlimit:1.5;">
    <g>
        <path
            d="M1.953,10.986l-0.203,27.642l8.043,0.136c1.179,0.305 2.386,0.617 3.447,1.216c2.839,1.603 5.219,3.928 8.018,5.601c4.05,2.421 8.781,3.618 13.326,4.706c2.234,0.535 7.955,2.65 11.533,1.923c2.737,-0.556 5.88,-2.155 8.013,-3.917c1.283,-1.06 1.04,-3.365 2.027,-4.596c1.281,-1.595 3.752,-1.808 5.169,-3.449c1.04,-1.204 1.22,-1.562 1.434,-3.004c0.317,-2.147 -0.054,-4.574 2.906,-4.365c1.595,0.112 5.931,1.473 6.644,1.694c5.795,1.797 11.67,4.151 17.641,5.407c3.481,0.733 8.332,1.732 10.949,-1.487c1.869,-2.299 1.488,-5.854 -0.879,-7.705c-0.791,-0.618 -1.749,-0.999 -2.677,-1.383c-7.697,-3.185 -16.151,-4.084 -24.231,-6.11c-3.647,-0.915 -7.286,-1.873 -10.891,-2.942c-1.151,-0.342 -2.262,-0.808 -3.364,-1.286c-0.475,-0.207 -1.505,-0.678 -1.146,-1.052c1.078,-1.127 4.415,-1.395 5.286,-1.49c11.682,-1.269 12.66,-0.905 24.74,-1.826c3.215,-0.245 13.59,0.514 13.619,-5.946c0.002,-0.486 -0.063,-0.975 -0.175,-1.448c-1.582,-6.692 -10.482,-5.53 -15.252,-5.319c-3.482,0.154 -6.958,0.427 -10.439,0.61c-6.443,0.339 -12.881,0.91 -19.334,0.955c-4.797,0.034 -11.254,-1.281 -16.085,-1.69c-6.652,-0.562 -13.362,1.01 -18.925,4.596c-3.808,2.455 -6.761,4.809 -11.42,4.961c-1.188,0.039 -2.379,-0.016 -3.567,-0.082c-1.405,-0.078 -2.807,-0.214 -4.207,-0.35Z"
            style="fill:none;stroke:current;stroke-width:3.5px;" />
        <path d="M38.533,34.252c-0.202,-0.751 -0.608,-2.253 -0.608,-3.38c0,-1.126 0.406,-2.628 0.608,-3.379"
            style="fill:none;stroke:current;stroke-width:3.5px;" />
        <path
            d="M27.922,13.097c1.459,0.946 3.651,2.433 4.596,3.92c0.912,1.434 1.566,4.926 2.366,6.421c1.509,2.82 5.562,4.918 8.718,4.731c4.62,-0.274 4.3,-6.426 3.44,-9.417c-0.293,-1.019 -1.221,-3.41 -1.48,-4.438c-0.565,-2.247 -1.332,-3.082 -2.635,-5.137c-1.618,-2.551 -3.747,-5.401 -6.556,-6.286"
            style="fill:none;stroke:current;stroke-width:3.5px;" />
        <path
            d="M49.077,51.419c-3.898,-2.385 -11.693,-7.153 -14.193,-9.26c-0.886,-0.746 -1.059,-2.264 -0.811,-3.379c0.248,-1.115 1.318,-2.625 2.298,-3.312c0.98,-0.687 2.399,-1.125 3.582,-0.811c1.611,0.428 4.011,2.336 6.083,3.38c2.793,1.408 8.05,3.848 10.678,5.069"
            style="fill:none;stroke:current;stroke-width:3.5px;" />
        <path
            d="M46.982,25.722c1.644,0.455 4.934,1.363 6.961,2.041c1.766,0.591 3.566,1.144 5.204,2.028c1.713,0.924 3.95,2.651 5.069,3.514"
            style="fill:none;stroke:current;stroke-width:3.5px;" />
    </g>
</svg>