<?xml version="1.0" encoding="UTF-8" standalone="no"?>
<!DOCTYPE svg PUBLIC "-//W3C//DTD SVG 1.1//EN" "http://www.w3.org/Graphics/SVG/1.1/DTD/svg11.dtd"><svg width="100%"
    height="100%" viewBox="0 0 260 400" version="1.1" xmlns="http://www.w3.org/2000/svg"
    xmlnsXlink="http://www.w3.org/1999/xlink" xml:space="preserve" xmlnsSerif="http://www.serif.com/"
    style="fill-rule:evenodd;clip-rule:evenodd;stroke-linecap:round;stroke-linejoin:round;">
    <g>
        <path id="path4001"
            d="M62.983,317.289c-0,0 -20.562,-44.371 -27.055,-56.277c-6.495,-11.907 -22.923,-52.95 -27.059,-62.773c-8.659,-20.563 20.564,-30.303 33.552,-17.316c12.987,12.987 32.467,49.785 32.467,49.785c0,-0 22.334,8.527 29.221,10.823c12.989,4.329 21.647,22.727 21.647,22.727"
            style="fill-opacity:0;fill-rule:nonzero;stroke:current;stroke-width:14.58px;" />
        <path id="path3995"
            d="M70.522,221.415c2.733,-20.037 1.789,-30.606 1.789,-30.606c-0,-0 -24.072,-110.643 -22.518,-140.143c0.022,-32.861 36.805,-28.792 40.817,-8.995c9.771,48.212 29.073,132.759 29.073,132.759c0,-0 -20.814,-129.572 -20.814,-147.19c0,-17.316 32.552,-35.958 38.962,3.246c6.41,39.205 25.144,146.107 25.144,146.107c-0,0 18.727,-110.111 23.408,-123.378c6.495,-18.4 31.918,-16.301 31.387,7.575c-1.081,48.62 -16.915,125.545 -16.915,125.545c0,-0 15.2,-62.158 19.806,-86.366c4.606,-24.208 32.708,-12.871 31.168,1.95c-1.54,14.821 -11.38,68.423 -14.977,97.403c-4.528,36.463 4.75,65.888 0.379,85.5c-8.969,40.225 -38.639,73.247 -38.639,73.247l-1.08,34.634l-100.653,-0l3.247,-37.88c0,0 -30.7,-9.069 -37.553,-38.226"
            style="fill-opacity:0;fill-rule:nonzero;stroke:current;stroke-width:14.58px;" />
    </g>
</svg>