<?xml version="1.0" encoding="UTF-8" standalone="no"?>
<!DOCTYPE svg PUBLIC "-//W3C//DTD SVG 1.1//EN" "http://www.w3.org/Graphics/SVG/1.1/DTD/svg11.dtd">
<svg width="100%" height="100%" viewBox="0 0 635 635" version="1.1" xmlns="http://www.w3.org/2000/svg" xmlns:xlink="http://www.w3.org/1999/xlink" xml:space="preserve" xmlns:serif="http://www.serif.com/" style="fill-rule:evenodd;clip-rule:evenodd;stroke-linecap:round;stroke-linejoin:round;stroke-miterlimit:1.5;">
    <g transform="matrix(1,0,0,1,-935.851,-2222.38)">
        <g transform="matrix(1,0,0,1,472.586,1452.7)">
            <circle cx="780.364" cy="1086.79" r="309.808" style="fill:white;stroke:rgb(16,16,16);stroke-width:14.58px;"/>
        </g>
        <g transform="matrix(0.880952,0,0,0.880952,564.667,1582.53)">
            <circle cx="780.364" cy="1086.79" r="309.808" style="fill:rgb(124,160,220);stroke:rgb(16,16,16);stroke-width:16.55px;"/>
        </g>
        <g transform="matrix(0.55409,0,0,0.55409,284.049,2337.83)">
            <path id="path4014" d="M1841.5,702.65L1659.84,702.65L1665.7,634.286C1665.7,634.286 1580.86,583.89 1590.89,515.762C1604.1,426.091 1615.54,338.279 1615.54,338.279C1615.54,338.279 1572.1,138.596 1574.9,85.356C1574.94,26.049 1641.32,33.393 1648.57,69.122C1666.2,156.132 1701.04,308.719 1701.04,308.719C1701.04,308.719 1663.47,74.873 1663.47,43.077C1663.47,11.826 1722.22,-21.819 1733.79,48.936C1745.36,119.691 1779.17,312.624 1779.17,312.624C1779.17,312.624 1812.96,113.899 1821.41,89.955C1833.13,56.749 1879.02,60.537 1878.06,103.627C1876.11,191.375 1847.53,330.205 1847.53,330.205C1847.53,330.205 1874.96,218.024 1883.28,174.335C1891.59,130.647 1942.31,151.106 1939.53,177.854C1936.75,204.602 1918.99,301.342 1912.5,353.643C1904.32,419.45 1921.07,472.556 1913.18,507.95C1896.99,580.548 1843.45,640.144 1843.45,640.144L1841.5,702.65Z" style="fill:rgb(165,95,46);fill-rule:nonzero;"/>
        </g>
        <g transform="matrix(0.55409,0,0,0.55409,284.049,2337.83)">
            <path id="path3995" d="M1841.5,702.65L1659.84,702.65L1665.7,634.286C1665.7,634.286 1580.86,583.89 1590.89,515.762C1604.1,426.091 1615.54,338.279 1615.54,338.279C1615.54,338.279 1572.1,138.596 1574.9,85.356C1574.94,26.049 1641.32,33.393 1648.57,69.122C1666.2,156.132 1701.04,308.719 1701.04,308.719C1701.04,308.719 1663.47,74.873 1663.47,43.077C1663.47,11.826 1722.22,-21.819 1733.79,48.936C1745.36,119.691 1779.17,312.624 1779.17,312.624C1779.17,312.624 1812.96,113.899 1821.41,89.955C1833.13,56.749 1879.02,60.537 1878.06,103.627C1876.11,191.375 1847.53,330.205 1847.53,330.205C1847.53,330.205 1874.96,218.024 1883.28,174.335C1891.59,130.647 1942.31,151.106 1939.53,177.854C1936.75,204.602 1918.99,301.342 1912.5,353.643C1904.32,419.45 1921.07,472.556 1913.18,507.95C1896.99,580.548 1843.45,640.144 1843.45,640.144L1841.5,702.65Z" style="fill-opacity:0;fill-rule:nonzero;stroke:rgb(27,27,27);stroke-width:26.32px;stroke-miterlimit:4;"/>
        </g>
        <g transform="matrix(0.55409,0,0,0.55409,284.049,2337.83)">
            <path id="path3999" d="M1598.7,566.546C1598.7,566.546 1561.6,486.467 1549.88,464.979C1538.15,443.491 1508.51,369.418 1501.04,351.689C1485.41,314.578 1538.15,296.999 1561.6,320.438C1585.03,343.876 1620.19,410.288 1620.19,410.288C1620.19,410.288 1660.5,425.677 1672.93,429.821C1696.37,437.633 1711.99,470.838 1711.99,470.838" style="fill:rgb(165,95,46);fill-rule:nonzero;"/>
        </g>
        <g transform="matrix(0.55409,0,0,0.55409,284.049,2337.83)">
            <path id="path4001" d="M1598.7,566.546C1598.7,566.546 1561.6,486.467 1549.88,464.979C1538.15,443.491 1508.51,369.418 1501.04,351.689C1485.41,314.578 1538.15,296.999 1561.6,320.438C1585.03,343.876 1620.19,410.288 1620.19,410.288C1620.19,410.288 1660.5,425.677 1672.93,429.821C1696.37,437.633 1711.99,470.838 1711.99,470.838" style="fill-opacity:0;fill-rule:nonzero;stroke:rgb(27,27,27);stroke-width:26.32px;stroke-miterlimit:4;"/>
        </g>
    </g>
</svg>
